# xmcd
#
# Track frame offsets:
#	150
#	20368
#	35847
#	57529
#	74981
#	88048
#	100237
#	116613
#	126973
#	139755
#	152481
#	163454
#	176014
#	186853
#	202460
#	215244
#
# Disc length: 3062 seconds
#
# Revision: 1
# Processed by: cddbd v1.5.2PL0 Copyright (c) Steve Scherf et al.
# Submitted via: audiograbber 1.83.01
#
DISCID=070bf410
DTITLE=Stardust - Stardust 072
DYEAR=2008
DGENRE=Country
TTITLE0=Business As Usual  - Troy Cook Jr
TTITLE1=Mama Saw Paris  - Becky Hobbs
TTITLE2=Breath Me A Song - Boggy Branch Band
TTITLE3=Do Right By Me  - Hank Newman
TTITLE4=This Must Be Someday - Jerri Arnold
TTITLE5=A Timer Or 200 - Michelle Rae
TTITLE6=Hands Across The Table  - Beau Renfro And Julie Taylor
TTITLE7=Luck Be A Lady  - Antonio Rosales
TTITLE8=Home Of The Blues  - Cody Huber
TTITLE9=Memphis Memory  - Ernie Ashworth
TTITLE10=A Place In My Mind - Jack Blanchard and Misty Morgan
TTITLE11=Wedding Bells  - Deacon Darrelle And Buster Doss
TTITLE12=Time Machine - Joel Mathis
TTITLE13=Just Another Hill  - Brazosgrass
TTITLE14=Ballad Of Valdez  - Mayf Nutter
TTITLE15=Dreamin´ Once More  - Rooster Quantrell
EXTD=
EXTT0=
EXTT1=
EXTT2=
EXTT3=
EXTT4=
EXTT5=
EXTT6=
EXTT7=
EXTT8=
EXTT9=
EXTT10=
EXTT11=
EXTT12=
EXTT13=
EXTT14=
EXTT15=
PLAYORDER=
